/* XPM */
static char *result[] = {
/* columns rows colors chars-per-pixel */
"25 25 111 2 ",
"   c #733E39",
".  c #4F5712",
"X  c #4B5717",
"o  c #4D5715",
"O  c #555C12",
"+  c #515D15",
"@  c #545F15",
"#  c #565F15",
"$  c #5F6213",
"%  c #52611A",
"&  c #566218",
"*  c #55661E",
"=  c #59641B",
"-  c #59671C",
";  c #616413",
":  c #646B15",
">  c #666916",
",  c #656C17",
"<  c #696C14",
"1  c #6A6F14",
"2  c #606B18",
"3  c #666F18",
"4  c #6A6D18",
"5  c #6B6E18",
"6  c #6E7213",
"7  c #63731B",
"8  c #66771D",
"9  c #6A7118",
"0  c #6F7218",
"q  c #6F7318",
"w  c #6F721A",
"e  c #6F7619",
"r  c #6E7A1B",
"t  c #6C7B1D",
"y  c #6E7E1E",
"u  c #707315",
"i  c #757915",
"p  c #747916",
"a  c #757916",
"s  c #777B16",
"d  c #767A17",
"f  c #767D17",
"g  c #72751B",
"h  c #73761A",
"j  c #73771A",
"k  c #717A18",
"l  c #757818",
"z  c #757918",
"x  c #717E1C",
"c  c #415922",
"v  c #415823",
"b  c #744435",
"n  c #75403A",
"m  c #566620",
"M  c #617922",
"N  c #667F25",
"B  c #68732F",
"V  c #627E29",
"C  c #787B21",
"Z  c #727D31",
"A  c #8C6432",
"S  c #936737",
"D  c #A56A43",
"F  c #AB6C48",
"G  c #AD6C49",
"H  c #AF6D4A",
"J  c #B86F50",
"K  c #BA7752",
"L  c #778019",
"P  c #75851C",
"I  c #578332",
"U  c #658126",
"Y  c #6A8021",
"T  c #61812A",
"R  c #7E8422",
"E  c #7F8226",
"W  c #778728",
"Q  c #768629",
"!  c #7F8638",
"~  c #798440",
"^  c #828823",
"/  c #80862D",
"(  c #86862F",
")  c #808F35",
"_  c #8D8D32",
"`  c #959E42",
"'  c #A6A84D",
"]  c #C8BC75",
"[  c #E4A672",
"{  c #CFC56B",
"}  c #D2C872",
"|  c #D4C976",
" . c #D4C778",
".. c #D6CB79",
"X. c #D6C87B",
"o. c #DACE81",
"O. c #D9CC82",
"+. c #DACC82",
"@. c #DCCC89",
"#. c #DDD185",
"$. c #DFD487",
"%. c #DFCE91",
"&. c #DDCB94",
"*. c #E2D492",
"=. c #E3D099",
"-. c #E3D09A",
";. c #E6D39E",
":. c #E7D79D",
">. c #E9D5A4",
",. c #E9D5A8",
"<. c #EAD4AA",
/* pixels */
"g g g g g g g g g g g g g g g g g g g g g g g g g ",
"g g g g g g g g g g g g g g g g g g g g g g g g g ",
"g g C E g g g g C C g g g g g g g g g g g g g g g ",
"g g g E E g g C C g g g g E E g g g g g g g g g g ",
"g g g , C C g C C g g g C E g g g g g g g g g g g ",
"g g g , C C g , , g g C C C g g g g g g g g g g g ",
"g g g g , , g g g g J J J J J g g g g g g g g g g ",
"g g g g g g g g g J J J J [ J J g g g g g g g g g ",
"g g g g g g g g g J J J J J [ J g J J J J g g g g ",
"g g g g g g g g   J J J J J J J   J [ J J g g g g ",
"g g g g g g g g   J J J J J J J n J J [ J   g g g ",
"g g g g g g g J J J J J J J J J   J J J J   g g g ",
"g g g g g g J J J J [ J J         J J J J J J g g ",
"g g g g g g J J J J J [ J J J J J J   J [ J J g g ",
"g g g g g   J J J J J J J   J [ J J   J J [ J   g ",
"g g g g g   J J J J J J J   J J [ J   J J J J   g ",
"g g g C E   J J J J J J J   J J J J   J J J J   g ",
"g g g g E                   J J J J             g ",
"g g g g , C _ J J J J J I b           J J J J v 4 ",
"g g g g , ( ~ K <.<.<.<.N T J J J H c A <.<.<.. $ ",
"g g g g g * @ G =.@.=.<.& # D ,.;.&.X S >.$.| ) i ",
"g g g g g r 2 F O.{ X.%.m : J :.#.+.M 3 -.o.` ^ s ",
"g g g g g % O B  .} *.! 1 = - ] ..' L k W / R s z ",
"g g g g g ; o + Z U Y P e V 7 Q 9 t f y x p 8 h g ",
"g g g g g w > 5 u d d s h g g a 6 < l j h 0 q g g "
};
