/* XPM */
static char *result[] = {
/* columns rows colors chars-per-pixel */
"25 25 164 2 ",
"   c #010100",
".  c #0E0E03",
"X  c #04050F",
"o  c #07080D",
"O  c #0B0C0C",
"+  c #1B1C07",
"@  c #19150B",
"#  c #18150F",
"$  c #1F1C0A",
"%  c #060B17",
"&  c #0B0D13",
"*  c #090C19",
"=  c #0E1115",
"-  c #0E111B",
";  c #12151C",
":  c #16181A",
">  c #222208",
",  c #26280E",
"<  c #2E2F0B",
"1  c #33340C",
"2  c #3B3C0E",
"3  c #262710",
"4  c #2C2D11",
"5  c #050A21",
"6  c #131723",
"7  c #141822",
"8  c #1A1D23",
"9  c #10152A",
"0  c #151C2E",
"q  c #1F2020",
"w  c #1D222C",
"e  c #1D2333",
"r  c #1E233B",
"t  c #21252D",
"y  c #26292D",
"u  c #2B2C2D",
"i  c #232B3D",
"p  c #2E3135",
"a  c #32373D",
"s  c #363A3E",
"d  c #444610",
"f  c #474911",
"g  c #494B11",
"h  c #525413",
"j  c #565814",
"k  c #5B5E15",
"l  c #525419",
"z  c #5E6016",
"x  c #616417",
"c  c #646618",
"v  c #6F721A",
"b  c #72751B",
"n  c #1C274D",
"m  c #262C43",
"M  c #293245",
"N  c #2E364C",
"B  c #363B42",
"V  c #3A3E44",
"C  c #313949",
"Z  c #2D3553",
"A  c #2F3C57",
"S  c #27325B",
"D  c #333D54",
"F  c #343D5A",
"G  c #343E60",
"H  c #374055",
"J  c #3B455B",
"K  c #3A4461",
"L  c #3E4A63",
"P  c #3B4568",
"I  c #3F4C6F",
"U  c #414344",
"Y  c #454843",
"T  c #43464C",
"R  c #474A4F",
"E  c #4A4C4F",
"W  c #4C4E53",
"Q  c #4F5256",
"!  c #4D5158",
"~  c #535352",
"^  c #515458",
"/  c #54595E",
"(  c #5B5A59",
")  c #615F5C",
"_  c #67645C",
"`  c #424E6E",
"'  c #46526C",
"]  c #4F576F",
"[  c #414C77",
"{  c #455172",
"}  c #495573",
"|  c #47537B",
" . c #4C5C7F",
".. c #515B77",
"X. c #515E7A",
"o. c #5C6066",
"O. c #5C646C",
"+. c #5A657D",
"@. c #6E6B65",
"#. c #646971",
"$. c #6C7072",
"%. c #6C727B",
"&. c #4D5B82",
"*. c #566581",
"=. c #56678C",
"-. c #5C6B8B",
";. c #5D6F95",
":. c #5E7095",
">. c #657086",
",. c #647496",
"<. c #63749A",
"1. c #67799C",
"2. c #727A92",
"3. c #6A7CA6",
"4. c #7A828F",
"5. c #768090",
"6. c #7A8392",
"7. c #7487AC",
"8. c #858889",
"9. c #8F8F8C",
"0. c #838B95",
"q. c #848D9C",
"w. c #8C949B",
"e. c #8E99A8",
"r. c #919CAC",
"t. c #989FA9",
"y. c #8995B1",
"u. c #979FB2",
"i. c #9AA0AB",
"p. c #9DA7B5",
"a. c #A4A5A6",
"s. c #A0A8B3",
"d. c #A4AEBE",
"f. c #BBBCBC",
"g. c #9AAACC",
"h. c #A2AFC4",
"j. c #ABB4C1",
"k. c #B3BCC6",
"l. c #B1BBCC",
"z. c #B7C0CB",
"x. c #B8C0CB",
"c. c #B5C0D1",
"v. c #B9C6DA",
"b. c #BFCADB",
"n. c #BCC9E0",
"m. c #C6C6C6",
"M. c #C1C9D5",
"N. c #C2CADA",
"B. c #CFD0D0",
"V. c gainsboro",
"C. c #E3E1DE",
"Z. c #C8D4E5",
"A. c #CCD8E7",
"S. c #CEDAED",
"D. c #D5E1F4",
"F. c #DBE6F5",
"G. c #E2E7EF",
"H. c #E8EBF1",
"J. c #E3EFFF",
"K. c #E8EFFD",
"L. c #E3F0FF",
"P. c #EDF3FA",
"I. c #F3FBFD",
"U. c #FEFEFE",
/* pixels */
"b b b b b b b b <               1 b b b b b b b b ",
"b b b b b b b g Y ! T V V V T ! Y g v b b b b b b ",
"b b b b b b l   %.F.N.c.c.c.b.D.%.  g b b b b b b ",
"b b b j < 2 +   : w.A.U.U.U.A.w.q   + 2 < h b b b ",
"b b c 3 o o O &   7 q.K.H.K.q.8   O & o o 3 c b b ",
"b j > e F Z F L D J ..2.6.2...J H L H Z F e > j b ",
"b 2   6 Z Z ' ;.7.<.I n n n [ ,.7.:.[ Z Z 6   2 b ",
"b d         i  .<.<.-.` G ` -.,.,. .i         d b ",
"b d   s U   E N.6.M *.-.} -.*.M 2.M.E   U s   d b ",
"b f   q.l.& ) U.@.  L 1.-.1.L   @.U._ = l.q.  d b ",
"b h   6.c.&   _ $   F 3.3.3.F   @ _ # t v.4.  h b ",
"k 1 y t.N./       6 r K ' K r 7       u x.s.y 1 k ",
"+ a e.G.P.k.+.Z Z i &   : o o i P Z   # m.U.r.a + ",
"  W I.U.U.U.u.r S | N       C [ [ Z e $.C.U.U.!   ",
"  / U.U.U.U.9.  5 &.,.C   C ,.&.9   O.F.I.U.U.(   ",
"  ) U.U.U.U.B.#.6 X 0 -   t H m     8.U.U.U.U.^   ",
". ~ V.U.U.U.U.D.O.  O O           : a.U.U.G.d.B . ",
"h 4 U f.U.U.U.F.p.0.j.#.        p q.M.P.U.t.p , h ",
"b x > ~ m.V.N.h.S.J.Z.o.        o.L.I.c.i.s $ x b ",
"b b x > p >.7.,.n.z.R           Q A.U.d.B + c b b ",
"b b b z + * A =.g.5.O         % ] y.q.R + z b b b ",
"b b b b x + w *.3.' ;       * D &.F - + z b b b b ",
"b b b b b z $ w ] { ; + g + * K S * + z b b b v b ",
"b b b b b b d   J X.; 2 b 2 = F m   d b b b b b b ",
"b b b b b b b b b b b b b b b b b b b b b b b b b "
};
