/* XPM */
static char *result[] = {
/* columns rows colors chars-per-pixel */
"20 20 71 1 ",
"  c #553111",
". c #553B15",
"X c #583C15",
"o c #5C3D18",
"O c #4B4B10",
"+ c #524415",
"@ c #5C4417",
"# c #564D14",
"$ c #5C4B17",
"% c #5D4518",
"& c #5F4A19",
"* c #545315",
"= c #5A5216",
"- c #525915",
"; c #595B17",
": c #5D5B18",
"> c #624715",
", c #604817",
"< c #624C1A",
"1 c #684E1C",
"2 c #645419",
"3 c #6B531E",
"4 c #645C1A",
"5 c #69591E",
"6 c #566617",
"7 c #5C6215",
"8 c #5A6A16",
"9 c #5C6018",
"0 c #5C6C19",
"q c #626417",
"w c #656A14",
"e c #636519",
"r c #69651B",
"t c #656A1A",
"y c #6C6D1B",
"u c #766716",
"i c #70671F",
"p c #736C1C",
"a c #6D731B",
"s c #73741C",
"d c #7D741E",
"f c #737A1E",
"g c #7D7B1E",
"h c #6F5D20",
"j c #705C21",
"k c #736224",
"l c #716A22",
"z c #796C24",
"x c #757523",
"c c #767A24",
"v c #7B7B23",
"b c #7D7C2B",
"n c #817D25",
"m c #817D2A",
"M c #867D31",
"N c #7B8223",
"B c #828223",
"V c #878926",
"C c #85832B",
"Z c #89852C",
"A c #83882E",
"S c #8B8A2D",
"D c #858130",
"F c #8B8432",
"G c #8D8933",
"H c #908B37",
"J c #938D39",
"K c #959439",
"L c #99913E",
"P c #9B9B3B",
"I c None",
/* pixels */
"IIIIIIIIIIIIIIIIIIII",
"IIIIIIIII33IIIIIIIII",
"IIIIIIII1KK1IIIIIIII",
"IIIIIzFjzHZp5r3IIIII",
"IIII>ZPBBBBBxNlIIIII",
"IIjknSvBVZBBvni,IIII",
"IIDPHGBsGHSBny44r4II",
"II3MSnssdGHBssprfrII",
"II pVuvGgcZdsCSd2III",
"IjmZVnBGSddsvHGar@II",
"IkKFBBHZdndZHGsaya2I",
"IjGnwGGnBgMHmgBcyy0%",
"I2svmFyaSCBCBnZsr:*%",
"<avmLC7bLCfgvLDs:*%I",
"&atyDsqvmpayxbsy;-*I",
"&Ny9wyaay:yseO9;-;6%",
"I&:yNb0le-ry*#--;8=I",
"II%NFl;:;6=*#tt#=$II",
"IIIhh%#09#.+0a$IIIII",
"IIIIII...III..IIIIII"
};
