/* XPM */
static char *result[] = {
/* columns rows colors chars-per-pixel */
"25 25 171 2 ",
"   c #000000",
".  c #0B0A02",
"X  c #02020B",
"o  c #0D0509",
"O  c #030A0D",
"+  c #0B0C0C",
"@  c #160506",
"#  c #150B0B",
"$  c #1C0E0A",
"%  c #0E100A",
"&  c #171705",
"*  c #171806",
"=  c #1B170F",
"-  c #030616",
";  c #090B11",
":  c #0D1318",
">  c #13161C",
",  c #1A1C1C",
"<  c #200903",
"1  c #3C160F",
"2  c #251610",
"3  c #2B1C13",
"4  c #341C1B",
"5  c #371C1A",
"6  c #2A2B0A",
"7  c #37380D",
"8  c #24241A",
"9  c #3F231E",
"0  c #3F281A",
"q  c #3E3C10",
"w  c #131B25",
"e  c #1B1E24",
"r  c #0C1232",
"t  c #151D36",
"y  c #1C2231",
"u  c #2A2E26",
"i  c #20242A",
"p  c #26292D",
"a  c #282C32",
"s  c #2B3133",
"d  c #2D343A",
"f  c #313237",
"g  c #4D1D16",
"h  c #461F18",
"j  c #40251E",
"k  c #442A1D",
"l  c #482D1F",
"z  c #623013",
"x  c #462622",
"c  c #4A2C22",
"v  c #573526",
"b  c #5D332E",
"n  c #653D2C",
"m  c #7C382D",
"M  c #693735",
"N  c #6C3B35",
"B  c #6F3B38",
"V  c #723C3A",
"C  c #3F4012",
"Z  c #444610",
"A  c #43451E",
"S  c #515313",
"D  c #5A5D15",
"F  c #6B6E19",
"G  c #6F721A",
"H  c #72751B",
"J  c #484B38",
"K  c #72432D",
"L  c #79423B",
"P  c #1F2642",
"I  c #252D4F",
"U  c #2B384D",
"Y  c #31384A",
"T  c #222A53",
"R  c #2A3558",
"E  c #3C434D",
"W  c #38425F",
"Q  c #3D486A",
"!  c #3F5267",
"~  c #434748",
"^  c #434956",
"/  c #565858",
"(  c #715052",
")  c #656056",
"_  c #414C65",
"`  c #424D6C",
"'  c #485365",
"]  c #545D6A",
"[  c #404B70",
"{  c #4C5879",
"}  c #57606F",
"|  c #5A6575",
" . c #596677",
".. c #636C77",
"X. c #6A7079",
"o. c #80453F",
"O. c #8B543D",
"+. c #97503B",
"@. c #AC603C",
"#. c #824640",
"$. c #904F47",
"%. c #935940",
"&. c #995748",
"*. c #8E5F50",
"=. c #A25C4B",
"-. c #B76E4F",
";. c #B16751",
":. c #B86F50",
">. c #BF7352",
",. c #8A696B",
"<. c #966C6D",
"1. c #C36E4B",
"2. c #CF7D5A",
"3. c #D07D5A",
"4. c #7F8226",
"5. c #D58260",
"6. c #E48A63",
"7. c #4E5C80",
"8. c #495B8A",
"9. c #576787",
"0. c #5B6D95",
"q. c #64738B",
"w. c #657698",
"e. c #827784",
"r. c #778290",
"t. c #78879E",
"y. c #7D8BA3",
"u. c #788CAD",
"i. c #7B90A8",
"p. c #778AB2",
"a. c #7B91B9",
"s. c #878D9D",
"d. c #8D9699",
"f. c #A38082",
"g. c #818FA6",
"h. c #8190A7",
"j. c #8894A2",
"k. c #939AAD",
"l. c #8698B3",
"z. c #8B9BB4",
"x. c #8A9DB8",
"c. c #9AA4AF",
"v. c #9AA5B6",
"b. c #B7B1A4",
"n. c #A8AEBD",
"m. c #ABB1BC",
"M. c #CFB8AB",
"N. c #C3BFBF",
"B. c #96A7C1",
"V. c #9BACC9",
"C. c #9EB2C7",
"Z. c #A5AFC4",
"A. c #A0B2CC",
"S. c #B1BCCF",
"D. c #B6BFD3",
"F. c #B9C5D7",
"G. c #BACDEA",
"H. c #C0C3CF",
"J. c #C1CDD5",
"K. c #D0CFDC",
"L. c #D1D7DD",
"P. c #FEDCCE",
"I. c #E1D9DA",
"U. c #E3E0D8",
"Y. c #CAD8EE",
"T. c #D8DCE3",
"R. c #CEDDF4",
"E. c #E3F6FF",
"W. c #EDF3FA",
"Q. c #F3F5F7",
"!. c #FEFFFF",
/* pixels */
"H H         & D H H H H H H H H D &         H H H ",
"H H   # l v l q S Z Z Z Z Z Z S C l v l $   H H H ",
"H H   j :.6.%.2                 2 +.6.:.0   H H H ",
"H H   0 =.O.c 5 4 j x 9 9 x 9 4 9 c O.=.0   H H H ",
"H H   5 B o   N =.o.o.o.#.o.#.=.N   o B 4   H H H ",
"H H   5 o.#   O.;.V V L L B B ;.O.  + o.9   H H H ",
"H H 6 8 x c K @.1.=.o.N N o.=.1.@.K c x 3 6 H H H ",
"H H H Z   n 3.>.1.:.$.M N $.-.>.:.2.K   Z H H H H ",
"H H H D     L P.M.k h V V h j M.P.O.    D H H H H ",
"H H D C i . E J.d.  1 =.&.1   d.F.E X i A D H H H ",
"H H * E i.z. .d $ g +.5.5.+.g < d | l.h.E & G H H ",
"H H   ,  .C.x.U ~ f.*.z z =.e.~ U x.A. .,   H H H ",
"H H       ] V.x.F.F./   o / F.F.z.V.}       H H H ",
"H H   e / z.t.~ j.E.C.! _ C.E.j.^ y.l.| e   H H H ",
"H H   , J s X 6 % f ..| y.v.v.,   q.F.i.d   H H H ",
"H G   p S.f   y I Q P   . 8 p   O u.u.w     4.H H ",
"F 7 + k.!.~   0.8.R X ; a % 8 O } e.( @     H H H ",
"C > r.!.W.] ` a.h.n.  ~ L.F.m.] c.( m V 2   H H H ",
"a F.W.!.H.[ 7.9.X.U.= E Q.!.!.N.,.,.<.$.3   H H H ",
"~ c.s.Z.7.r { ! + 8   _ T.!.!.I.,.B.h.b < & H H H ",
".   : [ R R 7.w.U   t I / !.Q.Q.K.G...$ 7 D H H H ",
". w { p.w.q.p.p.W X [ r # F.Y.T.c.q.:   S H H H H ",
"; { 0.0.^ e 7.7.>   w.t f F.R.g._ e     Z H H H H ",
"o Q [ T.b.. - ;   + Y + E !.!.V.R ' d   q H H H H ",
"u T - / ) : I _ ' i     , D.W.y.Y y...  Z H H H H "
};
