/* XPM */
static char *result[] = {
/* columns rows colors chars-per-pixel */
"25 25 154 2 ",
"   c #000001",
".  c #090705",
"X  c #0E0E00",
"o  c #04050B",
"O  c #0C0B0E",
"+  c #140101",
"@  c #1D0302",
"#  c #1B0D0D",
"$  c #020315",
"%  c #0A0B17",
"&  c #090D19",
"*  c #1B0F10",
"=  c #131316",
"-  c #1D1213",
";  c #171913",
":  c #15161A",
">  c #17181B",
",  c #1A1A1D",
"<  c #230200",
"1  c #2E0000",
"2  c #210D01",
"3  c #220D0D",
"4  c #290D0C",
"5  c #310000",
"6  c #330D0C",
"7  c #251803",
"8  c #3B1700",
"9  c #37100F",
"0  c #391509",
"q  c #221416",
"w  c #291212",
"e  c #291519",
"r  c #241B1D",
"t  c #291B1D",
"y  c #341D1F",
"u  c #3F1819",
"i  c #1F2007",
"p  c #2D2D03",
"a  c #3E2304",
"s  c #232414",
"d  c #292B1F",
"f  c #3B3D17",
"g  c #31331B",
"h  c #3A3C1B",
"j  c #0D1225",
"k  c #1D1E22",
"l  c #0D173E",
"z  c #251E21",
"x  c #1E2125",
"c  c #1F2428",
"v  c #1E2537",
"b  c #1D283D",
"n  c #242325",
"m  c #282125",
"M  c #25272B",
"N  c #29262A",
"B  c #26292D",
"V  c #292A2E",
"C  c #312528",
"Z  c #3C3A28",
"A  c #262637",
"S  c #2A2134",
"D  c #262833",
"F  c #2C2E33",
"G  c #312F35",
"H  c #2E3036",
"J  c #2E3138",
"K  c #333335",
"L  c #32333A",
"P  c #36383F",
"I  c #39383F",
"U  c #421B01",
"Y  c #43100E",
"T  c #4C2C05",
"R  c #43340A",
"E  c #443B0C",
"W  c #4E2A25",
"Q  c #542625",
"!  c #3F411B",
"~  c #3D412B",
"^  c #4B430E",
"/  c #4F500E",
"(  c #52540C",
")  c #4C4F17",
"_  c #4C4E19",
"`  c #514E12",
"'  c #4F511A",
"]  c #585A14",
"[  c #5B5D1A",
"{  c #5F631D",
"}  c #656719",
"|  c #6A6C1C",
" . c #6F721B",
".. c #72751B",
"X. c #76781A",
"o. c #797C1D",
"O. c #464824",
"+. c #4F512E",
"@. c #575921",
"#. c #5A5D22",
"$. c #565937",
"%. c #5F6228",
"&. c #666925",
"*. c #606432",
"=. c #252E46",
"-. c #373941",
";. c #3A3B42",
":. c #222B53",
">. c #273257",
",. c #2E3758",
"<. c #323B61",
"1. c #47394B",
"2. c #593E40",
"3. c #3F4047",
"4. c #364056",
"5. c #384256",
"6. c #374062",
"7. c #3B476B",
"8. c gray27",
"9. c #464844",
"0. c #41424A",
"q. c #504E49",
"w. c #494654",
"e. c #484F55",
"r. c #51555C",
"t. c #404D6F",
"y. c #545A62",
"u. c #465577",
"i. c #505E7B",
"p. c #5E6473",
"a. c #556385",
"s. c #5E6E8E",
"d. c #526790",
"f. c #636C8A",
"g. c #616F90",
"h. c #66789C",
"j. c #6F82AA",
"k. c #768BB5",
"l. c #798CB3",
"z. c #7C91BC",
"x. c #89919A",
"c. c #8B93A7",
"v. c #939CA6",
"b. c #9AA1AD",
"n. c #97A4BF",
"m. c #AFBACE",
"M. c #B0B6C3",
"N. c #E5E2DC",
"B. c #CFD7E5",
"V. c #DDE7F6",
"C. c #E9EAEF",
"Z. c #E3F0FF",
"A. c #EEF4FE",
"S. c white",
/* pixels */
".......... ./ ] p D m.b.y.J H B [ X.........E 8 8 ",
"........{ f % o   O x.S.S.V.Z.c.s ] o.X...R 8 U 2 ",
"...... .i $ ,.,.5.x v M.S.A.v.,   p (  .^ 8 U 2 ^ ",
"......} X   j =.d.k.a.<.f.g.A j c : $ ) T 8 2 ^ ..",
"......} . r.n V n.h.a.>.l 7.j.h.u.<.:.; a 2 ) ....",
".... .( o m.w.q.N.> 6.f.a.i.s.l.4.% &   7 ` ......",
".. .$.~ p.B.e.  Z   t.z.k.b K C.8.n L . 0 *.+.&...",
".. .-.J u Q 2.S j & A w.1.w 4 W m 0.u Y 9 N L %...",
"..| M B n @ @ n B B M - @ @ @ , B B n @ @ n V #...",
".. .} x , + k x k k k x * + - x k k x , + k ' ....",
".. .Z V - - B V V V H B # < t F M M V n 3 3 N } ..",
"....0.;.@ C 0.3.3.I P P G 6 < N F B M V q < k } ..",
"..0.3.6 y I -.I -.-.-.L F 3 1 m J F B M B - + k | ",
"..0.3.w e I P P L L L J F G + m L B B V m 3 * , | ",
"..0.I @ e P L L H L F H J F < m F r r V r < x , | ",
"..0.P G 3 L H F F H H F F w w B r < # B n - x , } ",
"..0.-.L @ F F L J m F F F 3 q D q + * M M , k > | ",
"..9.L H B F F F N < z J B < q M q 3 V M , k , > | ",
"....M F F F F t < 5 * M r # r V m n M k k > : { ..",
"....O.M M V V m < < + d q r B z x x k > > : g  ...",
"....[ B B M M B m + r B n k k k x , : , > > ! ....",
"......@.B M M M x , , , k , k : : : , : > ! .. ...",
".... ...h : : : : , = = = : : : = = : : , .. .....",
".... .&.H x = : = ! ' ' ' ' ' _ B x : : = _ ......",
"......+.F k : : f ..............#.H B , : s ......"
};
