/* XPM */
static char *result[] = {
/* columns rows colors chars-per-pixel */
"25 25 155 2 ",
"   c #010100",
".  c #0C0202",
"X  c #0C0C03",
"o  c #000609",
"O  c #0C0408",
"+  c #170907",
"@  c #150C0A",
"#  c #1A0B0C",
"$  c #1C1D07",
"%  c #000511",
"&  c #0E1013",
"*  c #09161F",
"=  c #121315",
"-  c #14181D",
";  c #220401",
":  c #260900",
">  c #2D0D0A",
",  c #25190F",
"<  c #281415",
"1  c #261911",
"2  c #2C1915",
"3  c #2F1A18",
"4  c #381711",
"5  c #351D1A",
"6  c #252609",
"7  c #2C2D0B",
"8  c #33340C",
"9  c #37390D",
"0  c #3C3C0F",
"q  c #3E251B",
"w  c #121A20",
"e  c #1B1E24",
"r  c #1D2025",
"t  c #132028",
"y  c #25262A",
"u  c #22262D",
"i  c #272E35",
"p  c #2B2E35",
"a  c #2C323A",
"s  c #3E3C3B",
"d  c #471B13",
"f  c #41261D",
"g  c #43291D",
"h  c #4E2F1F",
"j  c #532219",
"k  c #403E11",
"l  c #4C2C22",
"z  c #572F2B",
"x  c #593527",
"c  c #443E3C",
"v  c #613227",
"b  c #733626",
"n  c #643631",
"m  c #683734",
"M  c #6E3938",
"N  c #703C37",
"B  c #723C39",
"V  c #464811",
"C  c #484A11",
"Z  c #555814",
"A  c #595B15",
"S  c #676A18",
"D  c #6B6E19",
"F  c #72751B",
"G  c #40443B",
"H  c #6D442E",
"J  c #6A4131",
"K  c #7C443D",
"L  c #373E47",
"P  c #3F4753",
"I  c #3F505E",
"U  c #5F4649",
"Y  c #454A53",
"T  c #454D59",
"R  c #5F4F56",
"E  c #4E5258",
"W  c #644F49",
"Q  c #6D4948",
"!  c #7E504E",
"~  c #4D5665",
"^  c #48596D",
"/  c #595E64",
"(  c #565F6E",
")  c #5B5F6C",
"_  c #596678",
"`  c #616D7E",
"'  c #736E7B",
"]  c #657275",
"[  c #6C717C",
"{  c #823324",
"}  c #824D3A",
"|  c #934233",
" . c #B3613E",
".. c #854842",
"X. c #8A4B44",
"o. c #8D5042",
"O. c #955647",
"+. c #935940",
"@. c #965249",
"#. c #885856",
"$. c #A36147",
"%. c #A86442",
"&. c #AD664D",
"*. c #B16B4D",
"=. c #A76753",
"-. c #AA6D52",
";. c #B16552",
":. c #896266",
">. c #82727C",
",. c #C06B47",
"<. c #C27252",
"1. c #CA795E",
"2. c #7F8226",
"3. c #DE8660",
"4. c #5C6D81",
"5. c #636F81",
"6. c #677283",
"7. c #6A7383",
"8. c #66778B",
"9. c #6C7B8D",
"0. c #6C7D94",
"q. c #6D8096",
"w. c #74839A",
"e. c #7687A1",
"r. c #7B8AA0",
"t. c #828FA6",
"y. c #8D94A6",
"u. c #8594AC",
"i. c #8B95AB",
"p. c #9192A6",
"a. c #8A9AB2",
"s. c #8B9FBA",
"d. c #9F9DB2",
"f. c #99A2AF",
"g. c #94A2BC",
"h. c #A3A7BE",
"j. c #B1A7B1",
"k. c #B6BABA",
"l. c #CAA28E",
"z. c #ECBCA7",
"x. c #89A4C1",
"c. c #99ACC8",
"v. c #98B3D1",
"b. c #A6BBD7",
"n. c #AEBED4",
"m. c #B7C7DF",
"M. c #ADC8EA",
"N. c #B1C4E4",
"B. c #B5CAE9",
"V. c #C2CDDE",
"C. c #C5CFE0",
"Z. c #D3E2F8",
"A. c #D7ECFF",
"S. c #F0EEEE",
"D. c #EEFDFF",
/* pixels */
"F F   @ q h g k Z C C C C C C Z 0 g l g @   F F F ",
"F F   q *.3.+.1 X X X o .     X , +.3.*.q   F F F ",
"F F   f &.$.x 5 < 3 5 5 5 5 q < 5 x $.&.g   F F F ",
"F F   5 M #   n @.K K K K K K O.n   # M 5   F F F ",
"F F   5 } O   } ;.B B } K B B ;.K   O K 5   F F F ",
"F F $ 2 z 5 h %.<.o.B N M K o.<. .x q z 2 $ F F F ",
"F F A 9 @ m <. .,.<.O.m M O.<.*.%.<.J @ 9 A F F F ",
"F F F A   : -.z.l.H v M N v H l.z.-.:   A F F F F ",
"F F F V     s S.k.. > ....>   k.S.s     C F F F F ",
"F F 8 G _ ^ T ] c ; b 1.1.b ; c ] I ^ _ G 8 F F F ",
"F F   p u.B.r.* # #.=.%.%.=.#.+ * e.B.u.p   F F F ",
"F F     e 9.c.0.p.j.W . . W j.p.0.c.9.e     F F F ",
"F F     w 5.g.0.n.A.q.% o 9.A.n.w.g.5.e     F F F ",
"F F   a u.b.0.- / Z.m.e.e.N.Z./ - 9.b.u.a   F F F ",
"F F   e _ v.q.    [ 7.~ ~ 7.'     0.v._ e   F F F ",
"F F       6.t.u                 u t.6.      2.F F ",
"F F   . 4 Q >.7.w   & ( ( *   t 7.>.Q 4 .   F F F ",
"F F   3 ..{ ! h.8.r _ B.B.) @ _ h.#.b ..5   F F F ",
"F F   2 @.{ #.p.x.e.u.c.M.>.j ' d.#.| X.3   F F F ",
"F F 6 1 l d U y.s.7.a.s.4.R :.d.u.U d l 1 6 F F F ",
"F F S 0 O   p a.5.o ` u.= y t.N.w.p   O 0 S F F F ",
"F F F D 9 X o p T Y ~ P u _ N.i.a o X 9 D F F F F ",
"F F F F F 8     T a.i X 9.Z.C.E     7 F F F F F F ",
"F F F F F 6 = T _ L   = i.D.C.Y     7 F F F F F F ",
"F F F F F 7 r r.7.    u f.D.V.E     7 F F F F F F "
};
