/* XPM */
static char *result[] = {
/* columns rows colors chars-per-pixel */
"25 25 139 2 ",
"   c #000000",
".  c #0A070A",
"X  c #090B0E",
"o  c #1B0300",
"O  c #11070B",
"+  c #150B0B",
"@  c #1C0E0A",
"#  c #171705",
"$  c #171806",
"%  c #010B11",
"&  c #0E141A",
"*  c #1A1B1C",
"=  c #200903",
"-  c #3C160F",
";  c #251610",
":  c #2B1614",
">  c #2C1F12",
",  c #301713",
"<  c #341C1B",
"1  c #3A1F1D",
"2  c #2E2F0B",
"3  c #37380D",
"4  c #3F231E",
"5  c #3F281A",
"6  c #3E3C10",
"7  c #121D23",
"8  c #1B1E23",
"9  c #1F2125",
"0  c #20242A",
"q  c #27292D",
"w  c #212731",
"e  c #2D343A",
"r  c #30353D",
"t  c #393B3E",
"y  c #4D1D16",
"u  c #461F18",
"i  c #40251E",
"p  c #442A1D",
"a  c #482D1F",
"s  c #623013",
"d  c #462622",
"f  c #4A2C22",
"g  c #573526",
"h  c #5D332E",
"j  c #653D2C",
"k  c #7C382D",
"l  c #693735",
"z  c #6C3B35",
"x  c #6F3B38",
"c  c #723D3A",
"v  c #3E400F",
"b  c #444610",
"n  c #43451E",
"m  c #515313",
"M  c #5B5D15",
"N  c #72751B",
"B  c #72432D",
"V  c #79423B",
"C  c #2B3B4C",
"Z  c #333D46",
"A  c #483E47",
"S  c #3C4048",
"D  c #3F5267",
"F  c #414957",
"G  c #494E57",
"H  c #52565C",
"J  c #64494B",
"K  c #7D5758",
"L  c #7B5859",
"P  c #4A5868",
"I  c #525D6D",
"U  c #665F62",
"Y  c #5A606B",
"T  c #5E636B",
"R  c #576575",
"E  c #596474",
"W  c #5F697B",
"Q  c #60656E",
"!  c #716069",
"~  c #7E6E78",
"^  c #80453F",
"/  c #8B543D",
"(  c #97503B",
")  c #AC603C",
"_  c #824640",
"`  c #834A40",
"'  c #8F4E46",
"]  c #865643",
"[  c #935940",
"{  c #8E5F50",
"}  c #885F5E",
"|  c #A25C4B",
" . c #B76E4F",
".. c #B16751",
"X. c #B86F50",
"o. c #BF7352",
"O. c #826065",
"+. c #966C6D",
"@. c #C36E4B",
"#. c #D07D5A",
"$. c #7F8226",
"%. c #D58260",
"&. c #E48A63",
"*. c #69768B",
"=. c #6C798B",
"-. c #827784",
";. c #78879F",
":. c #7D8899",
">. c #7D8CA3",
",. c #768EA8",
"<. c #7B90A9",
"1. c #868B9F",
"2. c #8D9699",
"3. c #808FA6",
"4. c #8190A7",
"5. c #8894A2",
"6. c #8698B3",
"7. c #8A9AB4",
"8. c #879CB8",
"9. c #8A9DB8",
"0. c #989CB2",
"q. c #99A2AF",
"w. c #98A7BB",
"e. c #99A7BB",
"r. c #CFB8AB",
"t. c #96A7C1",
"y. c #9BADCA",
"u. c #9EB1C8",
"i. c #A0B2CC",
"p. c #A1B3D0",
"a. c #B3C2D9",
"s. c #BFCADB",
"d. c #B7CBEA",
"f. c #C7CDD7",
"g. c #C0CBDC",
"h. c #FEDCCE",
"j. c #D0DCEF",
"k. c #C7D8F3",
"l. c #E3F6FF",
/* pixels */
"N N         $ M N N N N N N N N M $         N N N ",
"N N   + a g a 6 m b b b b b b m p f g a $   N N N ",
"N N   i o.&./ ;                 ; / &.X.p   N N N ",
"N N   5 | / f 1 < 4 i 4 4 4 d < 4 f / | 5   N N N ",
"N N   < x .   z | _ V ^ _ _ _ | z   . x <   N N N ",
"N N   < ^ O   / ..c c V V x x ../   O _ <   N N N ",
"N N 2 > d f B ) @.| ` x x ^ | @.) B f d > 2 N N N ",
"N N N b   j #.o.o.X.[ l l '  .o.o.#.j   b N N N N ",
"N N N M     V h.r.i u x c u 5 r.h.]     M N N N N ",
"N N M n 9 % S f.2.  - | | -   2.f.Z   9 n M N N N ",
"N N $ S 4.8.R e = y | %.&.( y @ e E 8.4.Z $ N N N ",
"N N   8 E u.9.C F +.{ s s | -.A C 9.i.E 8   N N N ",
"N N       I y.9.a.s.H     H g.a.8.y.I       N N N ",
"N N   9 R 6.>.F 1.l.u.P D u.l.5.F >.7.E 8   N N N ",
"N N   e >.a.*.  * q.e.;.;.e.q.*   *.a.>.e   N N N ",
"N N     7 ,.<.X   q 0 X X 0 q   % <.,.7     $.N N ",
"N N     o J -.E %     Z e     % E -.J =     N N N ",
"N N   : c k K 0.P   G p.p.G   I 0.L k c :   N N N ",
"N N   : ' +.~ O.! *.<.u.p.<.*.U O.~ +.' ,   N N N ",
"N N # = h 1.w.} L >.8.w.t.8.>.L } t.3.h = # N N N ",
"N N M 3 + W d.f.! X P d.d.I . U f.d.W @ 3 M N N N ",
"N N N m   & =.k.e.t S R R S t e.k.=.&   m N N N N ",
"N N N b     8 *.k.g.H     H s.k.=.8     b N N N N ",
"N N N v   r P w :.j.T     Y j.1.w P e   6 N N N N ",
"N N N b   W ;.X G g.Q     Q g.G X >.W   b N N N N "
};
