/* XPM */
static char *result[] = {
/* columns rows colors chars-per-pixel */
"25 25 155 2 ",
"   c #000000",
".  c #0B0201",
"X  c #0B0B03",
"o  c #060708",
"O  c #060A0C",
"+  c #0A0B0D",
"@  c #120B08",
"#  c #1E0F0D",
"$  c #131405",
"%  c #1E130F",
"&  c #0C0E12",
"*  c #1F0E11",
"=  c #0E1114",
"-  c #0E1318",
";  c #111316",
":  c #12161A",
">  c #1B181A",
",  c #2A0400",
"<  c #24160F",
"1  c #2B190F",
"2  c #31170A",
"3  c #200F11",
"4  c #211012",
"5  c #2A1715",
"6  c #2E1916",
"7  c #311C17",
"8  c #371E1B",
"9  c #381E1C",
"0  c #31320C",
"q  c #3A3C0E",
"w  c #332116",
"e  c #3D231C",
"r  c #121D23",
"t  c #1A1D21",
"y  c #1F2428",
"u  c #212123",
"i  c #242A2F",
"p  c #272C33",
"a  c #282D34",
"s  c #222F3E",
"d  c #24323C",
"f  c #2E333B",
"g  c #34383E",
"h  c #401107",
"j  c #441D1A",
"k  c #41271C",
"l  c #48251F",
"z  c #432C1C",
"x  c #413913",
"c  c #5B321E",
"v  c #422421",
"b  c #4A2B23",
"n  c #553226",
"m  c #5A362B",
"M  c #63342E",
"N  c #633531",
"B  c #6A3637",
"V  c #733E39",
"C  c #404211",
"Z  c #474811",
"A  c #4A4C12",
"S  c #4F5113",
"D  c #505213",
"F  c #575915",
"G  c #5A5C15",
"H  c #6F721A",
"J  c #72751B",
"K  c #42452A",
"L  c #48453F",
"P  c #78422F",
"I  c #734532",
"U  c #76403A",
"Y  c #7C443D",
"T  c #223340",
"R  c #323842",
"E  c #3A414C",
"W  c #374A60",
"Q  c #434652",
"!  c #444A53",
"~  c #464E5B",
"^  c #5F4C51",
"/  c #48505D",
"(  c #50565F",
")  c #604E53",
"_  c #4A5362",
"`  c #4E5A6A",
"'  c #545D6C",
"]  c #596474",
"[  c #52657A",
"{  c #5C6979",
"}  c #61666F",
"|  c #616371",
" . c #606875",
".. c #885237",
"X. c #B2613C",
"o. c #BA633D",
"O. c #824641",
"+. c #874A42",
"@. c #894941",
"#. c #945342",
"$. c #9C5F43",
"%. c #845858",
"&. c #A56346",
"*. c #A7634C",
"=. c #AA654A",
"-. c #A26C4F",
";. c #A26C50",
":. c #B96D52",
">. c #9B756F",
",. c #C77554",
"<. c #C3735C",
"1. c #D3825D",
"2. c #D8825E",
"3. c #687485",
"4. c #64778D",
"5. c #767C83",
"6. c #6D869E",
"7. c #76859A",
"8. c #78879C",
"9. c #7C8BA2",
"0. c #8A8E8F",
"q. c #98858F",
"w. c #8C8696",
"e. c #918B9B",
"r. c #84919C",
"t. c #808FA6",
"y. c #8290A7",
"u. c #8091A8",
"i. c #8A98AF",
"p. c #979BAC",
"a. c #8897B0",
"s. c #8A9AB2",
"d. c #8D9FBB",
"f. c #9BA2AE",
"g. c #8AA2BE",
"h. c #99A7BC",
"j. c #D09B83",
"k. c #DB9B81",
"l. c #9EAEC6",
"z. c #9BADC9",
"x. c #9FB1CE",
"c. c #ADBACD",
"v. c #A4B7D4",
"b. c #A6BBD9",
"n. c #AABFDF",
"m. c #B2C1D8",
"M. c #E0CFC8",
"N. c #CBD8EC",
"B. c #CADEF5",
"V. c #D0E0F3",
"C. c #D2E2F8",
"Z. c #F9EFEA",
"A. c #FAF0EB",
"S. c #E2F2FF",
"D. c #EDFCFF",
/* pixels */
"J J         X A J J J J J J J J J A X         J J ",
"J J   @ w b k x F S A A A A A D G x e b w @   J J ",
"J J   7 $.2.=.z X X X X X X X X X z *.2.$.w   J J ",
"J J   e *.:.I e 3 5 7 7 7 6 7 6 4 e I :.*.e   J J ",
"J J   5 V 8   v ..O.P Y V U U Y +.v   8 V 6   J J ",
"J J   6 Y 4   n :.@.V ^ O.O.V +.:.n   * Y 6   J J ",
"J J $ 5 N 9 < ..<.#.V V V V V #.,...< 8 N 5 $ J J ",
"J J S 0 % m &.X.o.,.*.Y N Y *.,.o.X.&.m % 0 S J J ",
"J J J G X 1 ;.2.k.*.P V B V V -.j.2.:.2 X G J J J ",
"J J J F X o w M.Z.L . N O.N . L A.M.u o X G J J J ",
"J J Z K ! d s 8.w.> , #.<.#., 4 0.8.T s ! K Z H J ",
"J J o f y.b.8.d . j #.:.1.:.#.l . d 7.v.9.g X H J ",
"J J   = E a.z.[ Q q.>.c h c >.q.Q [ z.i.E =   J J ",
"J J       ~ l.s.l.C.r.-   = r.C.l.d.z.!       J J ",
"J J   t ' s.a._  .V.B.4.W 4.B.V. ._ a.a.' t   J J ",
"J J   p 8.n.9.&   5.c.y.9.y.c.5.  & u.n.7.a   J J ",
"J J     r 6.g.i   y g t : t g u   y g.6.r     J J ",
"J J     . ^ w.] &     > p ;     = | q.) .     J J ",
"J J   # M @.%.e.[   ; 8.x.3.> O 3.w.) @.M *   J J ",
"J J 0 w b h l p.b.` a ` z.b.y O d.h.n h b w 0 J J ",
"J J H Z .   +  .v.v./   / d.a + 8.7.=   o Z H J J ",
"J J J J Z $   r 3.m.h.E a ! ] ] Q :   $ Z H J J J ",
"J J J J J C     u f.S.b.R   ] t.i     x J J J J J ",
"J J J J J q     u f.D.N.(   O ~ { E O 0 J J J J J ",
"J J J J J q     i p.D.N.}     i y.3.+ q J J J J J "
};
