/* XPM */
static char *result[] = {
/* columns rows colors chars-per-pixel */
"25 25 174 2 ",
"   c #111115",
".  c #121216",
"X  c #121316",
"o  c #131316",
"O  c #131417",
"+  c #141417",
"@  c #141418",
"#  c #141518",
"$  c #141519",
"%  c #151519",
"&  c #151619",
"*  c #16161A",
"=  c #16171A",
"-  c #16171B",
";  c #17171B",
":  c #17181A",
">  c #17181B",
",  c #181819",
"<  c #18191D",
"1  c #191A1D",
"2  c #191A1E",
"3  c #1A1B1F",
"4  c #1B1B1F",
"5  c #230B00",
"6  c #230E00",
"7  c #240E00",
"8  c #381300",
"9  c #3A1700",
"0  c #3B1700",
"q  c #3C1700",
"w  c #3C1800",
"e  c #3F1800",
"r  c #3F380C",
"t  c #24261F",
"y  c #2A2C1B",
"u  c #2E2F1B",
"i  c #32331B",
"p  c #3D3E18",
"a  c #1B1C20",
"s  c #1C1C20",
"d  c #1C1D20",
"f  c #1C1D21",
"g  c #1C1E20",
"h  c #1C1E21",
"j  c #1C1D22",
"k  c #1D1E22",
"l  c #1D1F23",
"z  c #1E1F23",
"x  c #1F2024",
"c  c #212226",
"v  c #212327",
"b  c #222327",
"n  c #272820",
"m  c #222428",
"M  c #232529",
"N  c #242529",
"B  c #242629",
"V  c #24262A",
"C  c #25272B",
"Z  c #25272C",
"A  c #25282C",
"S  c #26282C",
"D  c #26292C",
"F  c #26282D",
"G  c #27282D",
"H  c #26292D",
"J  c #27292D",
"K  c #27292E",
"L  c #272A2E",
"P  c #2F2928",
"I  c #2A2A2D",
"U  c #282A2E",
"Y  c #282A2F",
"T  c #292B2F",
"R  c #372B26",
"E  c #3A2F2B",
"W  c #383A2B",
"Q  c #282A30",
"!  c #292B30",
"~  c #2A2C31",
"^  c #2A2C32",
"/  c #2B2D32",
"(  c #2B2D33",
")  c #2C2E33",
"_  c #2C2E34",
"`  c #2C2F34",
"'  c #2D2F35",
"]  c #2E2F36",
"[  c #2E3036",
"{  c #2F3137",
"}  c #303137",
"|  c #303138",
" . c #303238",
".. c #313239",
"X. c #323239",
"o. c #32333A",
"O. c #33333B",
"+. c #33343B",
"@. c #34353C",
"#. c #34363D",
"$. c #35363D",
"%. c #34373D",
"&. c #35373E",
"*. c #36383F",
"=. c #37383F",
"-. c #36393F",
";. c #421700",
":. c #431C01",
">. c #403A0D",
",. c #423B0C",
"<. c #49362C",
"1. c #4E450E",
"2. c #4F460F",
"3. c #4E4A10",
"4. c #40411D",
"5. c #504C11",
"6. c #544D10",
"7. c #564C11",
"8. c #4F5119",
"9. c #555716",
"0. c #53551B",
"q. c #57591D",
"w. c #585B19",
"e. c #5C5F1B",
"r. c #656C17",
"t. c #61641A",
"y. c #64671C",
"u. c #66681B",
"i. c #66691B",
"p. c #67691C",
"a. c #696C1B",
"s. c #6C6F1B",
"d. c #696C1D",
"f. c #6F721B",
"g. c #6E711C",
"h. c #6F721F",
"j. c #71741B",
"k. c #72751B",
"l. c #70731C",
"z. c #414324",
"x. c #4D5023",
"c. c #525422",
"v. c #555821",
"b. c #5A5C2A",
"n. c #5D5F28",
"m. c #464733",
"M. c #525735",
"N. c #585B37",
"B. c #545739",
"V. c #54573B",
"C. c #5A5D3A",
"Z. c #5D6239",
"A. c #6A6D20",
"S. c #686B26",
"D. c #787B21",
"F. c #64693A",
"G. c #373940",
"H. c #363941",
"J. c #373941",
"K. c #383A41",
"L. c #383A42",
"P. c #393B42",
"I. c #3A3B43",
"U. c #393C43",
"Y. c #3A3C43",
"T. c #3D3E45",
"R. c #3D3E46",
"E. c #3D3F46",
"W. c #3F4048",
"Q. c #454645",
"!. c #41424A",
"~. c #42434B",
"^. c #43444C",
"/. c #7F8226",
/* pixels */
"k.k.k.k.k.k.k.k.k.k.k.k.k.k.k.k.k.k.k.k.k.1.0 q k.",
"k.k.k.k.k.k.k.k.k.k.k.k.k.k.k.k.k.k.j.k.2.9 :.6 k.",
"k.k.k.k.k.k././.k.k.k.k.k.k.k.k.k.j.k.3.0 :.7 ,.k.",
"k.k.k.k.k.k.k./.D.D.k.k.k././.k.k.k.5.w e 7 r k.k.",
"k.k.k.k.k.k.k.r.D.D.k.k.D./.k.k.k.6.9 e 7 r k.k.k.",
"k.k.k.k.k.k.k.k.r.r.k.D.D.D.k.k.7.8 ;.5 >.k.k.k.k.",
"k.h.V.N.N.N.N.N.N.N.N.C.C.M.N.Z.R <.E P F.B.S.k.k.",
"k.A.=.=.=.=.=.=.=.=.=.=.=.=.=.=.J.H.J.L.=.=.b.k.k.",
"k.d.V V V V V V V V V V V V V V V V V V V V v.k.k.",
"k.k.e.k k k k k k k k k k k k k k l s 3 a 4.k.k.k.",
"k.g.W Y Y Y Y Y L ! ! ! ! ~ / S C J M v 4 n y.k.k.",
"k.k.T.E.R.W.W.W.W.%.*.G.G...| ( / B C S m 3 q.k.k.",
"k.~.~.~.^.G.K.K.K.K.&.o.o...` ' ' F C C C b a p.k.",
"k.~.~.I.-.K.G.+.......] _ ` ' ' ) Y J C C m a p.k.",
"k.~.Y.G.P.@.X. .| { _ ' ' ' [ ) K Y Z C C x 3 i.k.",
"k.!.*.U.#.X.[ ' ' ' ' ' ' [ ) Y Y C C C A 3 1 u.k.",
"k.!.G.$.O.' ' ' ' ' ' ' ' U Y ! C C C H f j 1 u.k.",
"k.Q.o.] ` ' ' ' ' ' _ ! K Y S V C A C f f 2 = a.k.",
"k.j.C ) ( / / / ( ^ K K J S C S S c z j 2 = 0.k.k.",
"k.l.z.C Z Q Y Q S S F C S J m x x f 3 1 : y s.k.k.",
"k.k.c.C C C C C S S S J k k k f f > > > > i k.k.k.",
"k.k.k.x.D N V C f a 3 3 a d 1 = : > > > u k.j.k.k.",
"k.k.l.k.t $ - * < ; + # # # % X O + % & k.f.k.k.k.",
"k.k.k.n.I k o ,   w.8.8.8.8.9.G g 4 O   p k.k.k.k.",
"k.k.k.m.T > > @ t.k.k.k.k.k.k.k.} V h > . k.k.k.k."
};
