/* XPM */
static char *result[] = {
/* columns rows colors chars-per-pixel */
"20 20 97 2 ",
"   c #1D0B00",
".  c #1D0C00",
"X  c #101014",
"o  c #111015",
"O  c #111115",
"+  c #121216",
"@  c #121316",
"#  c #131317",
"$  c #141418",
"%  c #161719",
"&  c #16161A",
"*  c #17181B",
"=  c #17191B",
"-  c #18181C",
";  c #18191C",
":  c #18191D",
">  c #181A1D",
",  c #191A1D",
"<  c #191A1E",
"1  c #1A1B1F",
"2  c #1B1C1F",
"3  c #200D00",
"4  c #361500",
"5  c #391500",
"6  c #381600",
"7  c #3A1600",
"8  c #3A1700",
"9  c #3B1700",
"0  c #3C1700",
"q  c #3F1800",
"w  c #1B1B20",
"e  c #1B1C20",
"r  c #1C1D21",
"t  c #1D1E22",
"y  c #1D1F22",
"u  c #1E1F23",
"i  c #1E2023",
"p  c #1E2024",
"a  c #1F2024",
"s  c #1F2125",
"d  c #202226",
"f  c #222428",
"g  c #232529",
"h  c #24262A",
"j  c #25272A",
"k  c #25272B",
"l  c #25272C",
"z  c #25282C",
"x  c #26282C",
"c  c #26282D",
"v  c #27292D",
"b  c #27292E",
"n  c #282A2E",
"m  c #282A2F",
"M  c #382E2A",
"N  c #38312F",
"B  c #292B30",
"V  c #2A2C31",
"C  c #2A2C32",
"Z  c #2B2D32",
"A  c #2B2D33",
"S  c #2C2E33",
"D  c #2C2E34",
"F  c #2C2F34",
"G  c #2D2F35",
"H  c #2E3036",
"J  c #303137",
"K  c #303138",
"L  c #313238",
"P  c #313239",
"I  c #32333A",
"U  c #33343B",
"Y  c #33353B",
"T  c #34353C",
"R  c #34363D",
"E  c #35363D",
"W  c #35373E",
"Q  c #36383F",
"!  c #39383C",
"~  c #401800",
"^  c #463630",
"/  c #373A40",
"(  c #383A41",
")  c #383B41",
"_  c #393A42",
"`  c #393B42",
"'  c #3A3B42",
"]  c #3A3C43",
"[  c #3B3C43",
"{  c #3C3E45",
"}  c #404149",
"|  c #41424A",
" . c #42434B",
".. c #43464D",
"X. c #45474F",
"o. c #474C56",
"O. c None",
/* pixels */
"O.O.O.O.O.O.O.O.O.O.O.O.O.O.O.O.O.O.4 0 ",
"O.O.O.O.O.O.O.O.O.O.O.O.O.O.O.O.O.8 q 3 ",
"O.O.O.O.O.O.O.O.O.O.O.O.O.O.O.O.6 0 . O.",
"O.O.O.O.O.O.O.O.O.O.O.O.O.O.O.9 ~ 3 O.O.",
"O.O.O.O.O.O.O.O.O.O.O.O.O.O.7 5   O.O.O.",
"O.......................o.M ^ N ! X.O.O.",
"O.J K K K K K K K K K K K K K K K K J O.",
"O.i y y y y y y y y y y y y t p p p O.O.",
"O.x x x x x x x x x x x x k v t r r O.O.",
"O.( _ ' ] ] [ Y R W I P Z B h x h e r O.",
" . . .{ ( ( ( ` U I U F G G x k k x e O.",
" .} Q ) W T I L K D D G H C B k k v e O.",
"} / ( E I K G G G G G G C m v k x u 1 O.",
"} ( W P D G G G G H S C m c j k k t 2 O.",
"| W G G G G G G H m m m k k k x e t * O.",
"O.v S A A A A V n v b j x z f e r * * O.",
"O.k k b m B x l l k x h t t t ; * * O.O.",
"O.O.k k k x f f f d w e 1 1 % * * * O.O.",
"O.O.O.g a s t e ; : , > = = ; ; ; O.O.O.",
"O.O.O.- + @ O X O O O o < & $ # O O.O.O."
};
