/* XPM */
static char *result[] = {
/* columns rows colors chars-per-pixel */
"25 25 98 2 ",
"   c #140101",
".  c #1D0302",
"X  c #1F0F01",
"o  c #1B0D0D",
"O  c #1B0F10",
"+  c #131316",
"@  c #1D1213",
"#  c #151619",
"$  c #17181B",
"%  c #1A1A1D",
"&  c #230200",
"*  c #2E0000",
"=  c #210D01",
"-  c #220D0D",
";  c #290F0F",
":  c #310000",
">  c #340E0B",
",  c #371600",
"<  c #3A1700",
"1  c #3E1800",
"2  c #37100F",
"3  c #221416",
"4  c #291212",
"5  c #2A1719",
"6  c #241B1D",
"7  c #291B1D",
"8  c #3D1111",
"9  c #3D1C11",
"0  c #341D1F",
"q  c #3B2A07",
"w  c #3B2E09",
"e  c #232416",
"r  c #292B1F",
"t  c #3C3E17",
"y  c #31331B",
"u  c #1D1E22",
"i  c #251E21",
"p  c #1E2125",
"a  c #1F2428",
"s  c #242226",
"d  c #282125",
"f  c #25262A",
"g  c #29262A",
"h  c #26292D",
"j  c #29292E",
"k  c #332023",
"l  c #3B3E2B",
"z  c #2C2E33",
"x  c #322E34",
"c  c #2E3036",
"v  c #2E3138",
"b  c #333137",
"n  c #323239",
"m  c #36383F",
"M  c #39383F",
"N  c #420D0B",
"B  c #421B01",
"V  c #45120E",
"C  c #52190A",
"Z  c #43340A",
"A  c #443B0C",
"S  c #613E17",
"D  c #3F411B",
"F  c #46400E",
"G  c #4A460F",
"H  c #4C4E19",
"J  c #514E12",
"K  c #59471F",
"L  c #4F511A",
"P  c #5C5E1B",
"I  c #644016",
"U  c #63431A",
"Y  c #5F631D",
"T  c #656C17",
"R  c #64671A",
"E  c #676A1C",
"W  c #6A6C1C",
"Q  c #6F711C",
"!  c #72751B",
"~  c #464824",
"^  c #46452A",
"/  c #4F512E",
"(  c #575921",
")  c #5A5D22",
"_  c #50512C",
"`  c #525433",
"'  c #55583C",
"]  c #5F6228",
"[  c #616425",
"{  c #6A6D25",
"}  c #787B21",
"|  c #606432",
" . c #373941",
".. c #3A3B42",
"X. c #3F4047",
"o. c #464844",
"O. c #41424A",
"+. c #7F8226",
/* pixels */
"! ! ! ! ! ! ! ! ! ! ! ! ! ! ! ! ! ! ! ! ! ! A 1 < ",
"! ! ! ! ! ! ! ! ! ! ! ! ! ! ! ! ! ! ! ! ! Z 1 B = ",
"! ! ! ! ! ! +.+.! ! ! ! ! ! ! ! ! ! ! ! w B B = F ",
"! ! ! ! ! ! ! +.} } ! ! ! +.+.! ! ! ! q B 1 = A ! ",
"! ! ! ! ! ! ! T } } ! ! } +.! ! ! ! q B , X G ! ! ",
"! ! ! ! ! ! ! ! T T ! } } } ! ! ! q B , X J ! ! ! ",
"! Q ' ` U U U I K _ S U U S U I ^ 9 C V > | ` { ! ",
"! Q  .v 8 V 2 8 x M k N 8 8 8 V x n 8 N 8 g b [ ! ",
"! W f h s . . s g f f 3 . .   6 f f f . . s f ) ! ",
"! ! R u 6   u u u u u p O   @ u u p p %   % H ! ! ",
"! ! l j @ O f z j j z j o & 7 z f f h s - ; r E ! ",
"! ! O.... g O.X.O.m m m x > & f z j f h 6 & u Y ! ",
"! O...2 0  . .M  . . .n z - * d c z f f h @   u W ",
"! O...4 5  .M m n n n v v z   d c z j h s - O % W ",
"! O...& 7 n n n v n c z v z & d z 6 6 h 3 & p u W ",
"! O. .x - b c c z c z z z 4 4 j 7 & o h s 3 p $ E ",
"! O. .n   z z z v g z x z - 3 z 3   O f f % u $ E ",
"! o.n v j x c b g & i z f . 3 f 3 - f f u u % $ W ",
"! ! f z c z z 7 & : O j 6 - 6 f s f f u u $ $ P ! ",
"! ! ~ f f j j i & &   e 3 i h i u u u % $ $ y Q ! ",
"! ! ( a f f f f s   6 h p p u u u % $ $ $ $ D ! ! ",
"! ! ! P f f f f s % % % % % u $ $ $ $ $ $ D ! ! ! ",
"! ! ! ! l # $ $ # $ + # # # # + + + + $ % ! Q ! ! ",
"! ! ! ] j a + $ + D L L L L L L h u $ + + H ! ! ! ",
"! ! ! / c % $ # t Q ! ! ! ! ! ! ) z h % $ e ! ! ! "
};
