/* XPM */
static char *result[] = {
/* columns rows colors chars-per-pixel */
"25 25 7 1 ",
"  c #636917",
". c #656C17",
"X c #72751B",
"o c #787B21",
"O c #7F8226",
"+ c #A2814F",
"@ c #9CA8AD",
/* pixels */
"XXXXXXXXXXXXXXXXXXXXXXXXX",
"XXXXXXXXXXXXXXXXXXXXXXXXX",
"XXXXXXOOXXXXXXXXXXXXXXXXX",
"XXXXXXXOooXXXOOXXXXXXXXXX",
"XXXXXXX.ooXXoOXXXXXXXXXXX",
"XXXXXXXX..XoooXXXXXXXXXXX",
"XXXXXXXXXXXoo.XXXXXXXXXXX",
"XXXXXXXXXXX..XXXXXXXXXXXX",
"XXXXXXXXXXXXXXXXXXXXXXXXX",
"XXXXXXXXXXXXXXXXXXXXXXXXX",
"XXXXXXXXXXXXXXXXXXXXXXXXX",
"XXXXXXXXXXXXXXXXXXXXXXXXX",
"XXXXXXXXXXXXXXoOXXXXXXXXX",
"XXXXXXXXXXXXXXXOOXXXXXXXX",
"XXXXXXXXXXXXXXXoooXXXXXXX",
"XXXXXXXXXXXXXXX.oo.ooOOXX",
"XXXoOXXXXooXXXXX@@oooXXXX",
"XXXXOOXXooXXXXX@+@oo.XXXX",
"XXXX.ooXooXXXXX@@ o.XXXXX",
"XXXX.ooX..XXXXX  XXXXXXXX",
"XXXXX..XXXXXXXXXXXXXXXXXX",
"XXXXXXXXXXXXXXXXXXXXXXXXX",
"XXXXXXXXXXXXXXXXXXXXXXXXX",
"XXXXXXXXXXXXXXXXXXXXXXXXX",
"XXXXXXXXXXXXXXXXXXXXXXXXX"
};
