/* XPM */
static char *result[] = {
/* columns rows colors chars-per-pixel */
"20 20 8 1 ",
"  c #636917",
". c #656C17",
"X c #72751B",
"o c #787B21",
"O c #A2783C",
"+ c #7F8226",
"@ c #BD9842",
"# c #C6A740",
/* pixels */
"XXXXXXXXXXXXXXXXXXXX",
"XXXXXXXXXXXXXXXXXXXX",
"XXXXXXXXXXXXXXXXXXXX",
"XXX++XXXXXXXXXXXXXXX",
"XXXX+oXXXX+XXXXXXXXX",
"XXXXoooXo+XXXXXXXXXX",
"X+oo.oooo.XXXXXXXXXX",
"XXoo@@.oo.XXXXXXXXXX",
"XX.@OO@o.XXXXXXXXXXX",
"XXX @@ X##XXXXXXXXXX",
"X##X  XXO#XXXXXXXXXX",
"#OO#XXXX  XXXXXX+oXX",
" ## XXXXXXXXXXXX.ooX",
"X  XXXXXXXXXXXXXX.oo",
"XXXXXXXXXXXXXXXXX.oo",
"XXXXXXXXXXXXXXXXXX.o",
"XXXXXXXXXXXXXXXXXXXX",
"XXXXXXXXXXXXXXXXXXXX",
"XXXXXXXXXXXXXXXXXXXX",
"XXXXXXXXXXXXXXXXXXXX"
};
