/* XPM */
static char *result[] = {
/* columns rows colors chars-per-pixel */
"25 25 156 2 ",
"   c #010101",
".  c #0D0D03",
"X  c #03040D",
"o  c #0B0B0B",
"O  c #0F1004",
"+  c #111104",
"@  c #1B1505",
"#  c #1B1C07",
"$  c #1E1F09",
"%  c #000114",
"&  c #070A15",
"*  c #0C0E14",
"=  c #060C1B",
"-  c #0D1017",
";  c #0E111B",
":  c #12151B",
">  c #1D1D1E",
",  c #222208",
"<  c #26280E",
"1  c #2E2F0B",
"2  c #3B3C0E",
"3  c #060B21",
"4  c #141722",
"5  c #141822",
"6  c #1A1D23",
"7  c #101429",
"8  c #161D2D",
"9  c #1E232C",
"0  c #1F2537",
"q  c #1D233B",
"w  c #2B2A26",
"e  c #20252F",
"r  c #26282C",
"t  c #2D2D2C",
"y  c #202538",
"u  c #242A3F",
"i  c #2D3035",
"p  c #323334",
"a  c #35393F",
"s  c #444610",
"d  c #474911",
"f  c #4B4D12",
"g  c #41441E",
"h  c #4F5114",
"j  c #515314",
"k  c #5B5E15",
"l  c #535519",
"z  c #5E6016",
"x  c #616417",
"c  c #646618",
"v  c #6F721B",
"b  c #72751B",
"n  c #1C274D",
"m  c #252B42",
"M  c #293245",
"N  c #2D354D",
"B  c #353B42",
"V  c #3A3E44",
"C  c #313949",
"Z  c #212C53",
"A  c #2C3555",
"S  c #2F3C57",
"D  c #27325B",
"F  c #323C53",
"G  c #333C5B",
"H  c #323E68",
"J  c #374055",
"K  c #3B455B",
"L  c #3A4461",
"P  c #3E4A62",
"I  c #3A466C",
"U  c gray26",
"Y  c #454843",
"T  c #44464C",
"R  c #464A4E",
"E  c #4B4F53",
"W  c #4D5158",
"Q  c #535354",
"!  c gray35",
"~  c #67645C",
"^  c #69655C",
"/  c #404B61",
"(  c #424E6E",
")  c #46526B",
"_  c #5A5F67",
"`  c #404C76",
"'  c #445174",
"]  c #495574",
"[  c #4F5870",
"{  c #47537B",
"}  c #4B5C7F",
"|  c #515B77",
" . c #515E7A",
".. c #5C6167",
"X. c #626466",
"o. c #636870",
"O. c #6C727B",
"+. c #74777B",
"@. c #4D5B82",
"#. c #576682",
"$. c #5E6981",
"%. c #57688D",
"&. c #5C6B8B",
"*. c #5D6F94",
"=. c #5F7194",
"-. c #657087",
";. c #707783",
":. c #647496",
">. c #637499",
",. c #67799C",
"<. c #727A92",
"1. c #6A7CA6",
"2. c #7687A9",
"3. c #778BB3",
"4. c #87898A",
"5. c #8E8E8B",
"6. c #848B95",
"7. c #828B9D",
"8. c #8B929B",
"9. c #9F9D98",
"0. c #8F99A8",
"q. c #939CAB",
"w. c #8D99BC",
"e. c #9EA5B6",
"r. c #A5A6A7",
"t. c #A7AEB7",
"y. c #A3ACBD",
"u. c #BCBDBD",
"i. c #9AABCC",
"p. c #A3AFC4",
"a. c #ABB4C1",
"s. c #B7BFCB",
"d. c #B5C0D0",
"f. c #BFC9DA",
"g. c #BCCAE1",
"h. c #C6C6C5",
"j. c #C3C6CB",
"k. c #C7C8CA",
"l. c #CECFCF",
"z. c #C1C9D5",
"x. c #C2CBDC",
"c. c gray87",
"v. c #C8D3E4",
"b. c #CCD8E7",
"n. c #CDDAEF",
"m. c #D2DEF1",
"M. c #DBE0E7",
"N. c #D5E1F4",
"B. c #DBE6F5",
"V. c #E8EBF1",
"C. c #E3EFFF",
"Z. c #E8EFFD",
"A. c #E5F2FF",
"S. c #EDF4FE",
"D. c #F4FCFE",
"F. c #FEFEFE",
/* pixels */
"b b b b b b b b 1               1 b b b b b b b b ",
"b b b b b b b d Y W T V V V T W Y f b b b b b b b ",
"b b b b b b l   O.N.x.d.d.d.f.N.O.  f b b b b b b ",
"b b b b b j +   > 8.b.F.F.F.b.8.>   . h b b b b b ",
"b b b b f . o o   > 7.Z.V.Z.7.6   o X . f b b b b ",
"b b b j .   : K K G | <.2.;.| K K / :   . j b b b ",
"b b j +     F *.3.>.` n n Z ( :.3.=.F X   + j v b ",
"b f .   X u ' } :.:.&.( G ( &.:.=.} ' m     O f b ",
"b 2   * N H w.x.;.M #.&.] &.#.M O.x.w.H N *   2 b ",
"b s   0 I Z e.F.^   P ,.&.,.P   ~ F.e.Z I y   s b ",
"b j     % = T ~ @   G 1.1.1.G   @ ~ p   X     h b ",
"k g w p >         4 q L ) L q 5     X r w t r g k ",
"# B 0.M.9..   A I u &   :   * u A A $.t.h.j.q.B # ",
"  E D.F.F.+.8 N ` ` C       C { D q q.F.F.F.D.E   ",
"  ! F.F.D.B.o.  7 } :.C   N :.@.3   5.F.F.F.F.!   ",
"  Q F.F.F.F.4.    M J e   ; 8 X 5 X.l.F.F.F.F.X.  ",
". B y.V.F.F.r.:           o o   ..m.F.F.F.F.c.E . ",
"j < i q.F.S.z.8.i         o.a.6.e.B.F.F.F.u.U 1 j ",
"b x , a q.d.D.A...        _ v.C.n.p.x.c.k.Q , x b ",
"b b c $ B y.F.b.W           R s.g.:.2.-.i , c b b ",
"b b b z $ R 2.0.[ &         . 2.i.%.F = $ k b b b ",
"b b b b z $ - G { S *       * ) 1.#.9 $ x b b b b ",
"b b b b b z $ & G L - @ d $ : ) ] 9 $ k b b b b b ",
"b b b b b b s   m G * 2 b 2 :  .K   s b b b b b b ",
"b b b b b b b b b b b b b b b b b b b b b b b b b "
};
