/* XPM */
static char *result[] = {
/* columns rows colors chars-per-pixel */
"25 25 146 2 ",
"   c #010100",
".  c #0D0D02",
"X  c #06070F",
"o  c #0B0C0E",
"O  c #0F1004",
"+  c #171705",
"@  c #171806",
"#  c #181906",
"$  c #16170D",
"%  c #1F1A0B",
"&  c #010515",
"*  c #070A15",
"=  c #0A0C11",
"-  c #131314",
";  c #13161D",
":  c #222208",
">  c #2D2E0A",
",  c #33340D",
"<  c #3D3E0E",
"1  c #2C2D11",
"2  c #050B21",
"3  c #080E22",
"4  c #141721",
"5  c #1A1D23",
"6  c #1A1F2D",
"7  c #141930",
"8  c #1F2020",
"9  c #1A202D",
"0  c #1D2235",
"q  c #1D233B",
"w  c #202020",
"e  c #25272B",
"r  c #26292D",
"t  c #212731",
"y  c #2C2E33",
"u  c #262D3C",
"i  c #2F3236",
"p  c #31363C",
"a  c #454710",
"s  c #474911",
"d  c #4C4E12",
"f  c #505313",
"g  c #565817",
"h  c #5B5D15",
"j  c #535519",
"k  c #626417",
"l  c #656718",
"z  c #6E711A",
"x  c #72751B",
"c  c #1C274D",
"v  c #262C45",
"b  c #232E4C",
"n  c #293346",
"m  c #2D3649",
"M  c #3A3E44",
"N  c #313949",
"B  c #2B3555",
"V  c #27325B",
"C  c #323B51",
"Z  c #353E59",
"A  c #353F61",
"S  c #3E4349",
"D  c #354054",
"F  c #3A445A",
"G  c #374062",
"H  c #3B4561",
"J  c #3E4A63",
"K  c #3F4A6F",
"L  c #414141",
"P  c #454843",
"I  c #43464C",
"U  c #4C4F55",
"Y  c #4D5158",
"T  c #525252",
"R  c #595959",
"E  c #615F59",
"W  c #67645C",
"Q  c #424E6E",
"!  c #47536C",
"~  c #5A5F65",
"^  c #445177",
"/  c #495576",
"(  c #4E5B73",
")  c #475379",
"_  c #4B5C7E",
"`  c #515B77",
"'  c #5B6269",
"]  c #59647B",
"[  c #636362",
"{  c #6E6B65",
"}  c #61656B",
"|  c #656A71",
" . c #6C727B",
".. c #7B7A79",
"X. c #4E5B83",
"o. c #556483",
"O. c #54628A",
"+. c #5B6B8A",
"@. c #586792",
"#. c #5D6F93",
"$. c #5D7095",
"%. c #707788",
"&. c #737A89",
"*. c #637497",
"=. c #637499",
"-. c #67799C",
";. c #6A7C9F",
":. c #707893",
">. c #787E95",
",. c #6A7CA7",
"<. c #7185AA",
"1. c #7889AE",
"2. c #91908D",
"3. c #838D9F",
"4. c #8C949B",
"5. c #8E99A8",
"6. c #919AA9",
"7. c #929EB6",
"8. c #9BA3B4",
"9. c #ABB3BF",
"0. c #9AA9C5",
"q. c #ABB5C4",
"w. c #ACBACF",
"e. c #B5BBC1",
"r. c #B5BECB",
"t. c #B5C0D0",
"y. c #BEC9DA",
"u. c #C6C5C3",
"i. c #C6C8CC",
"p. c #C2CBDB",
"a. c #DDDDDD",
"s. c #C6D2E4",
"d. c #C9D3E2",
"f. c #CCD8E7",
"g. c #CBD7E9",
"h. c #CDDCF3",
"j. c #D2DEF1",
"k. c #D5E1F4",
"l. c #DAE4F2",
"z. c #E7ECF5",
"x. c #EDEDF0",
"c. c #E5EEFA",
"v. c #E8EFFD",
"b. c #F4F7FC",
"n. c #F4FCFF",
"m. c #FDFEFE",
/* pixels */
"x x x x x x x x >               > x x x x x x x x ",
"x x x x x x z s P Y I M M M I Y P d x x x x x x x ",
"x x x x x x j    .k.y.t.t.t.y.k. .  d x x x x x x ",
"x x x x x d +   8 4.f.m.m.m.f.4.w   . d x x x x x ",
"x x x x d $ = =   5 3.v.x.v.3.5   = = o d x x x x ",
"x x x f . 6 Z J D F ` :.>.:.` F Z U Z 6 . f x x x ",
"x z f $ 6 A @.#.<.=.Q c c c Q =.<.$.@.G 9 $ f z x ",
"x d O 0 K K ^ X.$.=.+.Q A Q +.=.#._ ^ K K q . d x ",
"x <   * 7 3 %.p.&.n o.+./ +.o.m %.p.%.3 7 *   < x ",
"x a         ..b.{   J -.+.-.J   { m...        a x ",
"x f   S '   . W %   Z ,.;.,.Z   % W .   ' S   f x ",
"h , e 9.l.~       4 q H ! H q 4       ~ l.q.r , h ",
"# p 5.z.b.r.] B B v *   ;   = v B B ] r.b.z.6.p # ",
"  U n.m.m.m.8.u V ) N       N ) V q 8.m.m.m.n.Y   ",
"  R m.m.m.m.2.  * X.*.N   m *.X.2   2.m.m.m.m.R   ",
"  W m.m.m.n.e.} 4 & m t   e m & ; } e.n.m.m.m.[   ",
". T a.m.n.d.j.j.|               | j.h.d.b.m.a.T . ",
"d 1 p u.m.c.s.f.r.} -       - ' r.g.s.c.m.u.L 1 f ",
"x k : W i.q.w.s.m.p.i       i y.m.d.w.q.i.E : k x ",
"x x l > y ` 0.d.n.q.y       y q.n.f.0.( y > k x x ",
"x x x >   b 1.7.6.Y -       - Y 6.7.1.b   > x x x ",
"x x x , = v O.o.t     .   .     t +.O.v = , x x x ",
"x x x l > X C o.9   , g s g ,   6 X.C X , k x x x ",
"x x x x h + u +.u # h x x x h @ u +.u @ h x x x x ",
"x x x x x x x x x x x x x x x x x x x x x x x x x "
};
