/* XPM */
static char *result[] = {
/* columns rows colors chars-per-pixel */
"20 20 144 2 ",
"   c black",
".  c #000001",
"X  c #010102",
"o  c #050402",
"O  c #000004",
"+  c #030404",
"@  c #000008",
"#  c #0A0A08",
"$  c #0B0C0B",
"%  c #0E0E0E",
"&  c #000616",
"*  c #080A10",
"=  c #090A10",
"-  c #0A0B11",
";  c #0B0C10",
":  c #0C0E15",
">  c #0C0E16",
",  c #0E111A",
"<  c #0A1227",
"1  c #111421",
"2  c #151929",
"3  c #171C2C",
"4  c #191F2C",
"5  c #1F2533",
"6  c #1D2337",
"7  c #202734",
"8  c #222837",
"9  c #252B37",
"0  c #252B3A",
"q  c #262C39",
"w  c #272E3B",
"e  c #23293E",
"r  c #2F3031",
"t  c #33353A",
"y  c #33373F",
"u  c #3F3F3F",
"i  c #1A254D",
"p  c #232B4A",
"a  c #293040",
"s  c #293346",
"d  c #2A304A",
"f  c #2A314A",
"g  c #323B4C",
"h  c #273050",
"j  c #263155",
"k  c #283156",
"l  c #2F3754",
"z  c #293358",
"x  c #2D385C",
"c  c #3F4244",
"v  c #364159",
"b  c #3E485E",
"n  c #3F4A6E",
"m  c #45494F",
"M  c #4E4E4E",
"N  c #514F4B",
"B  c #434850",
"V  c #404A5E",
"C  c #424E67",
"Z  c #424D6E",
"A  c #44516A",
"S  c #4A576F",
"D  c #465377",
"F  c #4A5670",
"G  c #475379",
"H  c #5B6068",
"J  c #5C6168",
"K  c #586179",
"L  c #686662",
"P  c #6B6A66",
"I  c #67707D",
"U  c #6D737C",
"Y  c #707172",
"T  c #4D5B80",
"R  c #515F89",
"E  c #5A6989",
"W  c #5C6B8D",
"Q  c #5D6D8C",
"!  c #5E6E8D",
"~  c #5F6F8E",
"^  c #576691",
"/  c #556593",
"(  c #556692",
")  c #656F87",
"_  c #616D88",
"`  c #797F87",
"'  c #767F8D",
"]  c #787F89",
"[  c #627297",
"{  c #6C7891",
"}  c #637498",
"|  c #67799E",
" . c #667A9F",
".. c #6A7EA4",
"X. c #7A828D",
"o. c #7D8590",
"O. c #7B879E",
"+. c #7E8898",
"@. c #7C8DB1",
"#. c #91908C",
"$. c #848B97",
"%. c #8C949E",
"&. c #929395",
"*. c #858FA8",
"=. c #8490A7",
"-. c #8696B8",
";. c #939CB5",
":. c #9CA4B3",
">. c #9DA6B4",
",. c #A9A6A0",
"<. c #A5A8AC",
"1. c #A1A8B3",
"2. c #A1AAB8",
"3. c #ABAEBC",
"4. c #A9B7CE",
"5. c #B4BCC6",
"6. c #B1BBCB",
"7. c #B0BBCD",
"8. c #B3BECE",
"9. c #B4BECC",
"0. c #AEBBD0",
"q. c #BBC3CD",
"w. c #BEC8D8",
"e. c #C7C6C5",
"r. c #C9C7C1",
"t. c #C8CBD0",
"y. c #DEDDDA",
"u. c #CCD7EA",
"i. c #CAD9EE",
"p. c #DCE3EA",
"a. c #D2E1F7",
"s. c #E7ECF2",
"d. c #E9F4FF",
"f. c #F2F1F0",
"g. c #F4F2F0",
"h. c #F1F6FD",
"j. c #F4F8FD",
"k. c #F4F8FE",
"l. c #F6F9FE",
"z. c #F0FCFF",
"x. c #F6FFFF",
"c. c #F9FFFF",
"v. c white",
"b. c None",
/* pixels */
"b.b.b.b.b.b.b.b.b.b.b.b.b.b.b.b.b.b.b.b.",
"b.b.b.b.b.b.b.b.b.b.b.b.b.b.b.b.b.b.b.b.",
"b.b.b.b.b.b.b.b.          b.b.b.b.b.b.b.",
"b.b.b.b.b.b.b.t 2.o.' X.2.m b.b.b.b.b.b.",
"b.b.b.b.b.b.  o ` z.v.v.%.#   b.b.b.b.b.",
"b.b.b.b.b.* 8 7 5 *.3.;.a 4 0 > b.b.b.b.",
"b.b.b.b.- d /  .| x i j [ ..( l : b.b.b.",
"b.b.b.  3 h K =.C ~ Z Q A O.) p 6   b.b.",
"b.b.b.  $   P r.  W ! }   ,.#.  %   b.b.",
"b.b.b.  $.]     = n E G ,     H >.  b.b.",
"b.b.  I h.s.{ k f   ;   e z _ p.l.+.  b.",
"b.b.  <.v.v.&.  R S   V ^ @ Y v.v.t.  b.",
"b.b.  e.v.j.q.B   w . 9 O y 5.k.v.f.  b.",
"b.b.b.u y.v.i.w.c       r 9.a.c.g.M b.b.",
"b.b.b.b.N 1.4.d.u.      6.x.0.:.L b.b.b.",
"b.b.b.b.  & @.7.U       J 8.-.<   b.b.b.",
"b.b.b.b.b.1 D v   X   +   s T 2   b.b.b.",
"b.b.b.b.b.b.q F   b.b.b.  b g   b.b.b.b.",
"b.b.b.b.b.b.b.b.b.b.b.b.b.b.b.b.b.b.b.b.",
"b.b.b.b.b.b.b.b.b.b.b.b.b.b.b.b.b.b.b.b."
};
