/* XPM */
static char *result[] = {
/* columns rows colors chars-per-pixel */
"25 25 77 1 ",
"  c #51341F",
". c #523521",
"X c #563B24",
"o c #533D2C",
"O c #583C2A",
"+ c #57431D",
"@ c #59431C",
"# c #675F19",
"$ c #6B6717",
"% c #6B641C",
"& c #6E6C1B",
"* c #706D1C",
"= c #6F701A",
"- c #72751B",
"; c #584123",
": c #5A4924",
"> c #53412F",
", c #5A422C",
"< c #5F5020",
"1 c #4D4539",
"2 c #544232",
"3 c #594534",
"4 c #5F4B31",
"5 c #504539",
"6 c #534A3D",
"7 c #5C4C3A",
"8 c #634E2E",
"9 c #625223",
"0 c #675920",
"q c #685820",
"w c #614732",
"e c #634934",
"r c #634C39",
"t c #67513C",
"y c #69543E",
"u c #6A6222",
"i c #6E6922",
"p c #787522",
"a c #5D4E40",
"s c #5C5345",
"d c #615545",
"f c #695542",
"g c #605748",
"h c #625A4B",
"j c #6E5B48",
"k c #665E53",
"l c #685F53",
"z c #6F6046",
"x c #6A604F",
"c c #6B6355",
"v c #6E6856",
"b c #6C6659",
"n c #6E6A5B",
"m c #716B56",
"M c #736C5B",
"N c #76715D",
"B c #7A735F",
"V c #757160",
"C c #7B7563",
"Z c #7E7866",
"A c #7C766B",
"S c #7F7A69",
"D c #807663",
"F c #827A67",
"G c #827D6C",
"H c #847F70",
"J c #85806F",
"K c #878272",
"L c #8A8474",
"P c #898877",
"I c #8C8778",
"U c #8D897B",
"Y c #908B7E",
"T c #918E82",
"R c #949084",
"E c #95938A",
"W c #999790",
/* pixels */
"--------&iijjjjfw**------",
"-------*fjfIUUUKg7r------",
"------pyMVHKKKKLGsrq-----",
"-----$yBCGYHKKKKHcs8*----",
"----$tCCGYLLLKLLUCss;----",
"---%yZFHYILLKLLLLKk162&--",
"---0fMGYILLLLLLLLPUs1>$--",
"---%tzGYUILLLLLIPPUUx11u-",
"--%rzCUUUUIIILLLLUURv1o#-",
"--#wFTUUUIIIUULLUUPTv6ao=",
"-%eFTIUPIIIYUUYYULPTb1aa2",
"-%eBUYUUIUUYYYYYUPRShs1a>",
"*rFKSURUUUYRYYYYUEAskksa>",
"qjLGJZUERRRYYYYWPvchssgs>",
"tUGGJJGGFERRRYYmNnshsksx>",
"rUGGGGJJLUYRBmBDNbhxsssso",
"4SSKGGGFWSCCZCVCMshggdsho",
",nvZFKKLUGSSZZCnvghggds7:",
"<dvhvCMKZCSSCFMklhggsh6;-",
"%2VccccvZSCSSblcllhsx3@--",
"=9sbccccmDFDSlclkksk5@---",
"-%,NxccccMVVVllccbsX@----",
"--<7nvvMMbbbvlcbs.:$=----",
"---9OOX lVMVnbk ;==------",
"----&&&-+.. ..X-=--------"
};
